<svg height="511pt" viewBox="1 1 511.9995 511" width="511pt" xmlns="http://www.w3.org/2000/svg"><path d="m445 246.5c-5.519531 0-10 4.480469-10 10s4.480469 10 10 10 10-4.480469 10-10-4.480469-10-10-10zm0 0"/><path d="m256 76.5c5.519531 0 10-4.480469 10-10s-4.480469-10-10-10-10 4.480469-10 10 4.480469 10 10 10zm0 0"/><path d="m256 435.5c-5.519531 0-10 4.480469-10 10s4.480469 10 10 10 10-4.480469 10-10-4.480469-10-10-10zm0 0"/><path d="m65 266.5c5.519531 0 10-4.480469 10-10s-4.480469-10-10-10-10 4.480469-10 10 4.480469 10 10 10zm0 0"/><path d="m216 296.5c0 26.984375 31.304688 46.453125 34.875 48.585938 1.578125.941406 3.351562 1.414062 5.125 1.414062s3.546875-.472656 5.125-1.414062c3.570312-2.132813 34.875-21.597657 34.875-48.585938 26.988281 0 46.457031-31.304688 48.585938-34.875 1.886718-3.15625 1.886718-7.09375 0-10.253906-2.128907-3.566406-21.597657-34.871094-48.585938-34.871094 0-26.988281-31.304688-46.457031-34.875-48.585938-3.15625-1.886718-7.09375-1.886718-10.25 0-3.570312 2.128907-34.875 21.597657-34.875 48.585938-26.988281 0-46.453125 31.304688-48.585938 34.871094-1.886718 3.160156-1.886718 7.097656 0 10.253906 2.132813 3.570312 21.597657 34.875 48.585938 34.875zm40 27.90625c-8.105469-6.074219-20-17.28125-20-27.90625 0-10.519531 11.488281-21.570312 20.019531-27.910156 8.476563 6.332031 19.980469 17.433594 19.980469 27.910156 0 10.628906-11.902344 21.839844-20 27.90625zm67.90625-67.910156c-6.074219 8.109375-17.277344 20.003906-27.90625 20.003906-2.046875 0-4.226562-.453125-6.492188-1.34375-4.617187-7.570312-11.035156-13.964844-16.605468-18.65625 5.570312-4.691406 11.988281-11.089844 16.605468-18.660156 2.269532-.886719 4.445313-1.339844 6.492188-1.339844 10.628906 0 21.839844 11.902344 27.90625 19.996094zm-67.90625-67.902344c8.105469 6.074219 20 17.277344 20 27.90625 0 10.519531-11.488281 21.566406-20.019531 27.90625-8.410157-6.28125-19.980469-17.414062-19.980469-27.90625 0-10.632812 11.902344-21.839844 20-27.90625zm-40 47.90625c2.050781 0 4.226562.453125 6.496094 1.339844 4.613281 7.570312 11.03125 13.96875 16.601562 18.660156-5.570312 4.691406-11.988281 11.085938-16.605468 18.65625-2.265626.890625-4.441407 1.34375-6.492188 1.34375-10.628906 0-21.835938-11.902344-27.90625-20 6.074219-8.105469 17.28125-20 27.90625-20zm0 0"/><path d="m38.847656 299.660156c1.585938 1.585938 3.246094 3.097656 4.945313 4.558594-3.871094 7.742188-4.0625 9.917969-21.546875 56.96875-1.90625 5.183594.75 10.929688 5.933594 12.835938l40.820312 15.019531v43.457031c0 5.523438 4.476562 10 10 10 0 0 52.953125-.019531 53.890625-.046875 1.195313 2.832031.152344.414063 22.601563 49.03125 2.3125 4.996094 8.246093 7.203125 13.273437 4.882813l46.984375-21.710938 33 34.730469c1.851562 1.945312 4.40625 3.066406 7.089844 3.109375.054687.003906.105468.003906.160156.003906 2.628906 0 5.152344-1.035156 7.023438-2.882812 0 0 40.390624-40.054688 41.851562-41.757813 7.757812 3.875 10.128906 4.136719 56.972656 21.546875 5.148438 1.894531 10.917969-.71875 12.835938-5.933594l15.074218-40.972656h43.242188c5.523438 0 10-4.476562 10-10 0 0-.015625-52.757812-.042969-53.667969 3.007813-1.265625.398438-.144531 49.1875-22.664062 2.40625-1.113281 4.273438-3.136719 5.191407-5.625.914062-2.492188.804687-5.242188-.308594-7.648438l-21.128906-45.703125 33.21875-33.667968c3.84375-3.894532 3.84375-10.152344 0-14.046876l-35.65625-36.136718c-1.699219-1.699219-3.476563-3.3125-5.300782-4.863282 4.191406-8.199218 4.152344-9.972656 21.902344-57.664062.917969-2.488281.808594-5.238281-.304688-7.648438-1.113281-2.40625-3.136718-4.273437-5.625-5.1875l-41.132812-15.132812v-43.34375c0-5.523438-4.476562-10-10-10 0 0-52.636719.015625-53.578125.046875-1.160156-2.746094-.097656-.292969-22.605469-49.042969-1.109375-2.40625-3.132812-4.273437-5.625-5.1875-2.488281-.917968-5.238281-.804687-7.644531.304688l-45.75 21.148437-34.871094-33.484375c-3.957031-3.800781-10.242187-3.699218-14.078125.226563 0 0-38.386718 39.402343-40.019531 41.339843-8.730469-4.5625-12.019531-4.984374-58.363281-22.257812-2.488282-.914062-5.242188-.804688-7.648438.308594-2.40625 1.113281-4.273437 3.136718-5.191406 5.625l-15.0625 40.972656h-43.5625c-5.523438 0-10 4.476562-10 10 0 0 .019531 52.839844.050781 53.792969-2.597656 1.101562-.464843.179687-48.886719 22.539062-2.40625 1.113281-4.273437 3.136719-5.1875 5.625-.917968 2.488281-.804687 5.238281.308594 7.648438l21.433594 46.375-33.804688 33.964843c-3.886718 3.902344-3.886718 10.207032 0 14.109376zm21.710938 15.902344c9.191406 4.765625 19.125 7.847656 29.3125 9.160156-10.398438 12.304688-17.320313 27.308594-19.820313 43.394532l-25.582031-9.410157c14.667969-39.640625 13.929688-38.378906 16.089844-43.144531zm195.441406-195.0625c74.148438 0 136 60.136719 136 136 0 75.316406-61.285156 136-136 136-74.925781 0-136-60.851562-136-136 0-18.152344 3.539062-35.800781 10.523438-52.453125.019531-.050781.039062-.105469.0625-.152344l-.023438.054688c.023438-.050781.046875-.105469.070312-.164063 21.226563-50.289062 70.457032-83.285156 125.367188-83.285156zm-167 264.945312c.226562-.675781-3.425781-35.640624 27.753906-58.679687 14.824219 29.160156 38.832032 53.355469 67.925782 68.433594-12.460938 16.722656-32.355469 27.300781-54.597657 27.300781h-41.082031zm64.441406 53.933594c13.15625-3.589844 25.21875-10.179687 35.285156-19.148437 1.511719 13.671875 6.207032 26.875 13.816407 38.496093l-33.089844 15.289063zm102.789063 48.84375c-36.761719-38.6875-26.046875-27.480468-28.089844-29.554687-14.304687-14.292969-21.304687-33.914063-19.726563-53.597657 15.332032 4.929688 31.285157 7.429688 47.585938 7.429688 17.113281 0 33.816406-2.738281 49.808594-8.152344 1.796875 19.738282-4.996094 39.675782-19.59375 54.273438zm103.136719-21.039062c-39.644532-14.667969-38.371094-13.933594-43.136719-16.085938 4.765625-9.195312 7.851562-19.132812 9.15625-29.332031 12.289062 10.347656 27.304687 17.226563 43.441406 19.703125zm63.632812-44.683594h-37.382812c-1.164063-.328125-35.109376 3.492188-58.058594-27.417969 29.003906-15.085937 52.988281-39.320312 67.773437-68.476562 16.765625 12.257812 27.667969 32.25 27.667969 54.964843zm16.925781-64.234375c-3.359375-12.390625-9.386719-23.828125-17.539062-33.53125 13.414062-1.71875 26.324219-6.507813 37.691406-14.105469l14.597656 31.578125zm48.027344-101.765625-28.636719 29.019531c-14.175781 14.195313-34.242187 21.710938-55.070312 19.582031 5.144531-15.628906 7.753906-31.925781 7.753906-48.601562 0-16.683594-2.609375-32.984375-7.753906-48.617188 20.441406-2.09375 40.605468 5.128907 55.027344 19.550782zm-36.578125-59.261719c-9.324219-4.792969-19.375-7.847656-29.675781-9.082031 10.722656-12.402344 17.8125-27.726562 20.300781-44.371094l25.84375 9.507813c-14.65625 39.523437-13.960938 38.589843-16.46875 43.945312zm-28.375-69.53125c-.242188 1.167969 2.800781 35.828125-28.042969 57.953125-14.898437-29.011718-38.9375-53.082031-67.9375-68.019531 12.40625-17.171875 32.617188-28.140625 55.210938-28.140625h40.769531zm-64.128906-55.089843c-12.351563 3.390624-23.769532 9.441406-33.472656 17.613281-1.722657-13.402344-6.511719-26.308594-14.101563-37.667969l31.5625-14.589844zm-130.648438-19.371094 28.003906-28.667969 30.015626 28.820313c14.859374 14.917968 21.613281 35.273437 19.503906 55.238281-15.976563-5.402344-32.65625-8.136719-49.746094-8.136719-16.269531 0-32.195312 2.488281-47.5 7.398438-1.894531-19.964844 5.027344-39.957032 19.640625-54.570313zm-75.277344-8.429688c38.464844 14.28125 38.957032 14.039063 44.75 16.839844-4.789062 9.449219-7.808593 19.640625-8.964843 30.078125-12.578125-11.21875-28.230469-18.640625-45.238281-21.214844zm-63.945312 44.683594h37.710938c2.167968.609375 35.949218-3.171875 58.496093 28.019531-29.074219 14.914063-53.148437 38.960938-68.097656 68.007813-17.867187-12.988282-28.109375-33.539063-28.109375-55.097656zm-16.832031 64.332031c3.507812 12.738281 9.832031 24.441407 18.402343 34.3125-13.488281 1.613281-26.492187 6.351563-37.992187 13.972657l-14.945313-32.324219zm-19.457031 73.933594c2.871093-1.117187 20.089843-23.371094 55.058593-19.90625-5.15625 15.652344-7.769531 31.960937-7.769531 48.640625s2.605469 32.980469 7.757812 48.613281c-20.128906 1.957031-40.1875-5.011719-54.75-19.578125l-28.898437-29.035156zm0 0"/></svg>